<?xml version="1.0" encoding="iso-8859-1"?>
<!-- Uploaded to: SVG Repo, www.svgrepo.com, Generator: SVG Repo Mixer Tools -->
<svg fill="#000000" height="800px" width="800px" version="1.1" id="Layer_1" xmlns="http://www.w3.org/2000/svg" xmlns:xlink="http://www.w3.org/1999/xlink" 
	 viewBox="0 0 512.013 512.013" xml:space="preserve">
<g>
	<g>
		<g>
			<path d="M490.673,128.006V85.34c0-11.782-9.551-21.333-21.333-21.333h-21.333V21.34c0-11.782-9.551-21.333-21.333-21.333H85.34
				c-11.782,0-21.333,9.551-21.333,21.333v42.667H42.673c-11.782,0-21.333,9.551-21.333,21.333v42.667
				c-13.358,0-23.43,12.136-20.968,25.265l64,341.333c1.892,10.09,10.702,17.402,20.968,17.402h341.333
				c10.266,0,19.076-7.312,20.968-17.402l64-341.333C514.103,140.142,504.031,128.006,490.673,128.006z M106.673,42.673H405.34
				v21.333H106.673V42.673z M64.006,106.673H85.34h341.333h21.333v21.333h-384V106.673z M408.968,469.34H103.045l-56-298.667
				h417.923L408.968,469.34z"/>
			<path d="M256.007,426.673c69.77,0,128-46.583,128-106.667c0-60.084-58.23-106.667-128-106.667s-128,46.583-128,106.667
				C128.006,380.091,186.237,426.673,256.007,426.673z M256.007,256.007c48.037,0,85.333,29.836,85.333,64s-37.297,64-85.333,64
				s-85.333-29.836-85.333-64S207.97,256.007,256.007,256.007z"/>
		</g>
	</g>
</g>
</svg>